
nColumns=19
nRows=49
DataType=double
version=3
OpenSimVersion=4.4-2022-10-11-798caa840
endheader
time	ground_force_calcn_r_vx	ground_force_calcn_r_vy	ground_force_calcn_r_vz	ground_force_calcn_r_px	ground_force_calcn_r_py	ground_force_calcn_r_pz	ground_force_calcn_r_mx	ground_force_calcn_r_my	ground_force_calcn_r_mz	ground_force_calcn_l_vx	ground_force_calcn_l_vy	ground_force_calcn_l_vz	ground_force_calcn_l_px	ground_force_calcn_l_py	ground_force_calcn_l_pz	ground_force_calcn_l_mx	ground_force_calcn_l_my	ground_force_calcn_l_mz
1.41	0	0	0	0	0	0	0	0	0	-42.541	44.2825	9.41466	-0.06353780000000001	0	-0.745313	0.433757	-0.451514	-0.0959941
1.42	-213.462	285.732	-34.1201	-0.07283539999999999	0	-0.440502	-0.528869	0.7079260000000001	-0.0845355	-325.102	456.179	33.835	-0.104262	0	-0.765518	0.258796	-0.363139	-0.0269342
1.43	-448.214	722.282	-80.9725	-0.08124720000000001	0	-0.443218	-2.41921	3.89847	-0.437044	-434.305	760.148	46.8722	-0.109445	0	-0.765328	0.68733	-1.20301	-0.0741798
1.44	-197.399	788.236	-104.071	-0.091935	0	-0.443603	-2.08425	8.32264	-1.09884	-147.006	707.873	38.2263	-0.119159	0	-0.76149	0.496967	-2.39303	-0.129227
1.45	-65.363	931.793	-112.199	-0.115674	0	-0.443804	-0.431157	6.14643	-0.740107	-78.0219	844.157	39.962	-0.150409	0	-0.757087	-0.244702	2.64755	0.125334
1.46	-128.159	1295.14	-96.8972	-0.152345	0	-0.450312	0.416981	-4.21391	0.315267	-79.7773	1282.59	7.18295	-0.196232	0	-0.74882	-0.764144	12.2853	0.0688016
1.47	-148.934	1510.4	10.4506	-0.172844	0	-0.458535	1.58717	-16.0961	-0.11137	-92.3276	1456.26	-46.452	-0.209378	0	-0.744808	-1.27754	20.1503	-0.642757
1.48	-177.333	1286.49	70.8484	-0.164199	0	-0.460759	2.71468	-19.694	-1.08457	-200.779	1165.58	-16.1959	-0.189197	0	-0.749212	-3.57125	20.7321	-0.288077
1.49	-217.953	1012.99	1.31172	-0.142306	0	-0.45453	2.83856	-13.193	-0.0170835	-244.878	941.987	64.8943	-0.1642	0	-0.757832	-3.66993	14.1174	0.972557
1.5	-221.114	891.484	-72.0258	-0.126333	0	-0.447848	1.23923	-4.99631	0.403667	-213.092	925.076	104.938	-0.159149	0	-0.761146	-2.271	9.85887	1.11836
1.51	-178.444	851.5119999999999	-86.61279999999999	-0.120443	0	-0.445361	0.359517	-1.71557	0.174502	-160.774	974.403	87.932	-0.163857	0	-0.760117	-1.79262	10.8646	0.980438
1.52	-139.291	866.896	-72.1298	-0.120174	0	-0.445855	0.433363	-2.6971	0.224411	-116.768	1020.72	48.8202	-0.167567	0	-0.757788	-1.63155	14.262	0.6821430000000001
1.53	-124.428	953.235	-53.2701	-0.123367	0	-0.448166	0.750448	-5.74915	0.321282	-93.277	1078.28	23.4603	-0.169008	0	-0.756374	-1.45039	16.7665	0.364791
1.54	-99.3254	1075.28	-41.3028	-0.129304	0	-0.451077	0.7934560000000001	-8.589779999999999	0.329945	-85.0517	1134.48	28.3446	-0.168327	0	-0.756901	-1.25272	16.7097	0.417486
1.55	-66.20269999999999	1167.47	-36.6253	-0.133846	0	-0.45351	0.580244	-10.2325	0.321008	-81.191	1166.67	44.874	-0.165865	0	-0.758306	-1.07462	15.4417	0.593938
1.56	-53.9444	1192.91	-36.9631	-0.133377	0	-0.455022	0.486548	-10.7593	0.333387	-73.05549999999999	1176.73	51.7292	-0.162512	0	-0.759239	-0.913303	14.7109	0.646692
1.57	-59.1413	1165.94	-38.3475	-0.127976	0	-0.455892	0.540254	-10.6508	0.350303	-65.88120000000001	1174.02	51.918	-0.158002	0	-0.759708	-0.8019230000000001	14.2905	0.63196
1.58	-70.3385	1140.33	-36.4077	-0.120144	0	-0.456783	0.64435	-10.4462	0.33352	-68.3897	1174.81	52.3721	-0.152035	0	-0.7599900000000001	-0.792622	13.6158	0.606981
1.59	-77.845	1132.98	-30.9343	-0.112499	0	-0.458002	0.706581	-10.2838	0.280783	-75.9171	1190.62	52.5524	-0.14587	0	-0.759734	-0.811179	12.7219	0.561526
1.6	-81.6922	1136.4	-23.3994	-0.106195	0	-0.459522	0.727727	-10.1232	0.208446	-79.7557	1207.9	54.3455	-0.140065	0	-0.759043	-0.753463	11.4112	0.513409
1.61	-87.0538	1146.35	-15.8361	-0.101333	0	-0.461031	0.751127	-9.891080000000001	0.136639	-81.8768	1218	57.0241	-0.134466	0	-0.758062	-0.670571	9.975440000000001	0.467027
1.62	-88.98309999999999	1152.82	-9.98005	-0.09763189999999999	0	-0.462346	0.734005	-9.50935	0.08232349999999999	-82.9348	1220.19	54.646	-0.129472	0	-0.756657	-0.615253	9.05204	0.405392
1.63	-87.3772	1153.34	-7.88244	-0.0948642	0	-0.463393	0.679573	-8.970039999999999	0.0613054	-76.5502	1212.69	45.8109	-0.125413	0	-0.754806	-0.55199	8.74452	0.330335
1.64	-88.3323	1148.78	-9.950189999999999	-0.0926411	0	-0.464052	0.630686	-8.20218	0.0710436	-62.7305	1195.75	33.8172	-0.12199	0	-0.7527160000000001	-0.448189	8.543240000000001	0.241613
1.65	-89.2059	1139.91	-14.346	-0.0907844	0	-0.464437	0.576142	-7.36221	0.09265470000000001	-48.3454	1173.89	24.0163	-0.118858	0	-0.750742	-0.325108	7.89406	0.161502
1.66	-87.49290000000001	1132.22	-18.676	-0.0892863	0	-0.464744	0.521571	-6.7495	0.111333	-36.8859	1153.12	19.991	-0.116099	0	-0.749008	-0.218896	6.8431	0.118635
1.67	-83.8472	1127.18	-21.8669	-0.0880629	0	-0.465065	0.482221	-6.48264	0.125761	-29.8147	1137.29	20.7248	-0.113748	0	-0.747545	-0.148247	5.65493	0.10305
1.68	-78.16970000000001	1123.71	-24.2182	-0.08707910000000001	0	-0.465432	0.452992	-6.51189	0.140344	-25.1516	1125.37	23.783	-0.111806	0	-0.746352	-0.100783	4.5094	0.0952993
1.69	-74.7407	1121.9	-26.3562	-0.08625629999999999	0	-0.46583	0.446716	-6.70546	0.157528	-20.9971	1114.47	27.7927	-0.110238	0	-0.745381	-0.0653716	3.46974	0.0865287
1.7	-74.637	1118.61	-28.8767	-0.08542669999999999	0	-0.466269	0.460929	-6.9081	0.178332	-16.6968	1105.57	32.0406	-0.108919	0	-0.744584	-0.038181	2.52813	0.0732681
1.71	-78.2483	1113.59	-33.1109	-0.08456959999999999	0	-0.466636	0.493523	-7.02356	0.208835	-13.8273	1100	36.9171	-0.107649	0	-0.743829	-0.0199562	1.58757	0.0532806
1.72	-85.1063	1107.7	-39.1398	-0.08369	0	-0.466854	0.535664	-6.97192	0.246348	-14.0472	1096.38	44.0347	-0.106538	0	-0.743191	-0.00636319	0.496644	0.0199471
1.73	-92.6199	1100.8	-46.7824	-0.08279549999999999	0	-0.466904	0.561516	-6.6737	0.283622	-14.1906	1092.73	53.1197	-0.105554	0	-0.742792	0.00896597	-0.690415	-0.0335624
1.74	-100.029	1094.69	-55.5144	-0.0819141	0	-0.466798	0.563542	-6.16725	0.312755	-15.0931	1090.19	62.1102	-0.104603	0	-0.742544	0.0247918	-1.79074	-0.102022
1.75	-106.897	1090.82	-64.7526	-0.0811721	0	-0.466559	0.542771	-5.53868	0.328784	-18.2602	1087.7	69.2715	-0.103682	0	-0.742329	0.0452901	-2.6978	-0.171812
1.76	-111.061	1088.71	-73.6832	-0.0805597	0	-0.466286	0.500784	-4.90907	0.332243	-21.4427	1084.11	73.2123	-0.10295	0	-0.742011	0.06666130000000001	-3.3703	-0.227603
1.77	-113.238	1088.01	-81.1187	-0.0800473	0	-0.46592	0.464905	-4.46688	0.333038	-25.3591	1079.97	74.5354	-0.10234	0	-0.741571	0.0906247	-3.85944	-0.266364
1.78	-113.005	1087.23	-85.9295	-0.079655	0	-0.465524	0.450307	-4.33246	0.342416	-31.0042	1074.34	74.7129	-0.10181	0	-0.741219	0.123415	-4.27651	-0.297401
1.79	-112.726	1085.18	-86.77849999999999	-0.0792828	0	-0.465188	0.471389	-4.53793	0.362885	-38.3451	1065.79	74.7298	-0.101236	0	-0.740991	0.171078	-4.75506	-0.333409
1.8	-114.537	1080.98	-84.3563	-0.0788513	0	-0.464839	0.528957	-4.99221	0.389576	-46.9797	1054.95	74.7094	-0.100533	0	-0.740899	0.238495	-5.35554	-0.379267
1.81	-117.582	1072.8	-80.5321	-0.0783671	0	-0.464463	0.598516	-5.4608	0.409925	-56.0646	1042.89	73.90260000000001	-0.09988759999999999	0	-0.740864	0.32321	-6.01222	-0.426046
1.82	-121.678	1059.88	-76.5873	-0.07791579999999999	0	-0.463917	0.665196	-5.79417	0.41869	-65.1275	1030.81	71.6682	-0.0993971	0	-0.740869	0.424741	-6.72262	-0.467398
1.83	-127.969	1042.06	-73.2158	-0.0773519	0	-0.463141	0.739688	-6.02337	0.423204	-75.2911	1018.99	68.5069	-0.0988402	0	-0.740997	0.548891	-7.42871	-0.499432
1.84	-136.793	1019.93	-70.6534	-0.07667499999999999	0	-0.462125	0.831511	-6.19979	0.429475	-87.496	1004.89	64.7343	-0.0981858	0	-0.741231	0.6959689999999999	-7.99317	-0.514916
1.85	-145.726	990.341	-68.4058	-0.0760125	0	-0.460808	0.925603	-6.29031	0.43449	-101.967	984.439	59.3219	-0.09755460000000001	0	-0.741484	0.853819	-8.24319	-0.496731
1.86	-152.176	946.859	-66.3115	-0.07527300000000001	0	-0.459068	0.996607	-6.20101	0.434277	-117.792	949.85	51.5267	-0.096641	0	-0.741733	1.00215	-8.08114	-0.438379
1.87	-153.054	883.187	-64.4492	-0.0743365	0	-0.456864	1.01858	-5.87764	0.428912	-130.901	888.187	41.2301	-0.095028	0	-0.742121	1.10358	-7.48797	-0.347596
1.88	-141.897	792.5119999999999	-59.1751	-0.0730954	0	-0.454187	0.992035	-5.54063	0.413706	-135.24	785.746	28.5843	-0.09222610000000001	0	-0.742848	1.09974	-6.38947	-0.232439
1.89	-111.758	655.971	-43.3934	-0.0712831	0	-0.451236	0.932086	-5.47094	0.36191	-124.763	637.278	12.2375	-0.0877092	0	-0.743966	0.901987	-4.60726	-0.0884725
